<?xml version="1.0" encoding="iso-8859-1"?>
<!-- Generator: Adobe Illustrator 22.1.0, SVG Export Plug-In . SVG Version: 6.00 Build 0)  -->
<svg xmlns="http://www.w3.org/2000/svg" xmlns:xlink="http://www.w3.org/1999/xlink" version="1.1" id="Layer_1_1_" x="0px" y="0px" viewBox="0 0 64 64" style="enable-background:new 0 0 64 64;" xml:space="preserve" width="512" height="512">
<g>
	<g>
		<g>
			<path style="fill:#F0BC5E;" d="M49.414,53H14.586L11,49.414V14.586L14.586,11h34.828L53,14.586v34.828L49.414,53z"/>
		</g>
	</g>
	<g>
		<rect x="35" y="35" width="10" height="2"/>
		<rect x="35" y="39" width="10" height="2"/>
		<rect x="1" y="23" width="10" height="2"/>
		<rect x="5" y="27" width="6" height="2"/>
		<rect x="1" y="31" width="10" height="2"/>
		<rect x="5" y="35" width="6" height="2"/>
		<rect x="1" y="39" width="10" height="2"/>
		<rect x="5" y="43" width="6" height="2"/>
		<rect x="1" y="47" width="10" height="2"/>
		<path d="M15,49h34V15H15V49z M17,17h30v30H17V17z"/>
		<rect x="1" y="27" width="2" height="2"/>
		<rect x="1" y="15" width="10" height="2"/>
		<rect x="5" y="19" width="6" height="2"/>
		<rect x="1" y="19" width="2" height="2"/>
		<rect x="1" y="35" width="2" height="2"/>
		<rect x="1" y="43" width="2" height="2"/>
		<rect x="23" y="53" width="2" height="10"/>
		<rect x="27" y="53" width="2" height="6"/>
		<rect x="31" y="53" width="2" height="10"/>
		<rect x="35" y="53" width="2" height="6"/>
		<rect x="39" y="53" width="2" height="10"/>
		<rect x="43" y="53" width="2" height="6"/>
		<rect x="47" y="53" width="2" height="10"/>
		<rect x="27" y="61" width="2" height="2"/>
		<rect x="15" y="53" width="2" height="10"/>
		<rect x="19" y="53" width="2" height="6"/>
		<rect x="19" y="61" width="2" height="2"/>
		<rect x="35" y="61" width="2" height="2"/>
		<rect x="43" y="61" width="2" height="2"/>
		<rect x="53" y="39" width="10" height="2"/>
		<rect x="53" y="35" width="6" height="2"/>
		<rect x="53" y="31" width="10" height="2"/>
		<rect x="53" y="27" width="6" height="2"/>
		<rect x="53" y="23" width="10" height="2"/>
		<rect x="53" y="19" width="6" height="2"/>
		<rect x="53" y="15" width="10" height="2"/>
		<rect x="61" y="35" width="2" height="2"/>
		<rect x="53" y="47" width="10" height="2"/>
		<rect x="53" y="43" width="6" height="2"/>
		<rect x="61" y="43" width="2" height="2"/>
		<rect x="61" y="27" width="2" height="2"/>
		<rect x="61" y="19" width="2" height="2"/>
		<rect x="39" y="1" width="2" height="10"/>
		<rect x="35" y="5" width="2" height="6"/>
		<rect x="31" y="1" width="2" height="10"/>
		<rect x="27" y="5" width="2" height="6"/>
		<rect x="23" y="1" width="2" height="10"/>
		<rect x="19" y="5" width="2" height="6"/>
		<rect x="15" y="1" width="2" height="10"/>
		<rect x="35" y="1" width="2" height="2"/>
		<rect x="47" y="1" width="2" height="10"/>
		<rect x="43" y="5" width="2" height="6"/>
		<rect x="43" y="1" width="2" height="2"/>
		<rect x="27" y="1" width="2" height="2"/>
		<rect x="19" y="1" width="2" height="2"/>
		<rect x="43" y="43" width="2" height="2"/>
		<rect x="39" y="43" width="2" height="2"/>
		<rect x="35" y="43" width="2" height="2"/>
		<path d="M23,19c-2.206,0-4,1.794-4,4s1.794,4,4,4s4-1.794,4-4S25.206,19,23,19z M23,25c-1.103,0-2-0.897-2-2s0.897-2,2-2    s2,0.897,2,2S24.103,25,23,25z"/>
	</g>
</g>
</svg>
