<svg id="Layer_5" enable-background="new 0 0 64 64" height="512" viewBox="0 0 64 64" width="512" xmlns="http://www.w3.org/2000/svg"><g fill="#f0bc5e"><path d="m2.001 51c0 2.761 6.716 5 15 5s15-2.239 15-5v-4c0 2.761-6.716 5-15 5s-15-2.239-15-5v4z"/><path d="m35 5v7h.001c.699 0 1.38.246 1.918.692.113.094.206.202.301.308h21.78v-8z"/><path d="m35 25h10v-9h-4v4h-2v3h-4z"/></g><path d="m31 1v12.516l-3.728 4.325-4.847-.657c1.508-1.14 2.649-2.756 3.203-4.67.824-.535 1.373-1.46 1.373-2.514v-2c0-1.489-1.093-2.718-2.516-2.951-1.659-2.503-4.469-4.049-7.483-4.049s-5.825 1.546-7.485 4.049c-1.423.234-2.515 1.463-2.515 2.951v2c0 1.054.548 1.978 1.372 2.513.573 1.981 1.776 3.641 3.363 4.786-3.868 1.008-6.735 4.521-6.735 8.7v2.772c0 2.648 1.665 4.91 4 5.81v7.17c-5.095 1.03-8 2.923-8 5.249v10c0 3.939 8.049 6 16 6s16-2.061 16-6v-10c0-2.326-2.905-4.218-8-5.249v-15.75l2.982.004h.008c1.067 0 2.097-.279 3.008-.783v3.778h32v-28zm-9.116 4h-9.764c1.293-1.26 3.042-2 4.883-2s3.588.74 4.881 2zm-12.882 3c0-.552.448-1 1-1h14c.552 0 1 .448 1 1v2c0 .552-.448 1-1 1h-3.765c-.382 0-.725-.212-.895-.552-.445-.893-1.342-1.448-2.34-1.448-.999 0-1.896.555-2.342 1.447-.17.341-.513.553-.894.553h-3.764c-.552 0-1-.448-1-1zm1.698 5h3.066c1.144 0 2.172-.636 2.684-1.659.209-.416.896-.418 1.104.001.511 1.022 1.54 1.658 2.683 1.658h3.066c-1.136 2.407-3.547 4-6.301 4-2.755 0-5.166-1.593-6.302-4zm-1.698 30.794v6.408c-3.794-.835-6-2.167-6-3.202 0-.805 1.629-2.258 6-3.206zm8 17.206c-8.546 0-14-2.369-14-4v-6.944c2.879 1.94 8.459 2.944 14 2.944s11.121-1.004 14-2.944v6.944c0 1.631-5.454 4-14 4zm14-14c0 1.036-2.206 2.367-6 3.202v-6.408c4.371.949 6 2.401 6 3.206zm-3.016-22.995-4.984-.006v26.571c-1.494.226-3.171.372-5 .412v-13.325c0-.802.312-1.556.878-2.121l.829-.828-1.414-1.416-.829.829c-.944.944-1.464 2.2-1.464 3.536v13.326c-1.829-.041-3.506-.187-5-.412v-15.582c.076.003.151.012.228.012 1.221 0 2.406-.355 3.427-1.027l5.196-3.425c.861-.491 1.495-1.178 1.832-1.986.486-1.166.409-2.458-.213-3.547-1.059-1.851-3.504-2.622-5.521-1.446l-4.802 3.26c-.165.112-.358.172-.561.172h-1.588v2h1.588c.605 0 1.188-.18 1.686-.519l4.738-3.22c.907-.525 2.194-.179 2.724.745.316.554.353 1.187.104 1.784-.163.392-.511.754-1.031 1.054l-5.251 3.458c-.693.456-1.498.697-2.327.697-2.333-.001-4.229-1.898-4.229-4.23v-2.772c0-3.859 3.14-6.999 6.999-7h2.978c.008 0 .015.001.023.001s.015-.001.023-.001h3.903l7.151.969 5.387-6.248c.679-.814 1.999-.936 2.813-.259.849.707.965 1.972.268 2.81l-5.34 6.252c-.805.942-1.977 1.482-3.215 1.482-.002 0-.004 0-.006 0zm33.014 2.995h-28v-3.497l5.076-5.944c1.41-1.694 1.179-4.223-.518-5.637-.717-.594-1.625-.922-2.556-.922-.719 0-1.4.211-2.002.561v-8.561h28z"/><path d="m59 15h-12v10h12zm-2 8h-8v-6h8z"/><path d="m41 15h4v2h-4z"/><path d="m35 23h2v2h-2z"/><path d="m39 23h6v2h-6z"/><path d="m39 19h6v2h-6z"/><path d="m37 51h26v-20h-26zm2-6h4v4h-4zm16 4h-4v-8h4zm-6 0h-4v-4.465l4-2.667zm8 0v-8.667l4-5.333v14zm3-16-4.5 6h-5.803l-6 4h-4.697v-10z"/></svg>