<svg id="_x31__x2C_5" enable-background="new 0 0 24 24" height="512" viewBox="0 0 24 24" width="512" xmlns="http://www.w3.org/2000/svg"><path d="m12 4.5 9 3.5-9 3.25-9.25-3.25z" fill="#ffc107"/><path d="m2.75 8.25 9.25 3.25v11.75l-9.25-3.25z" fill="#ffd54f"/><path d="m21.25 8-9.25 3.25v12l9.25-3.5z" fill="#ffca28"/><g fill="#00bcd4"><circle cx="12" cy="2" r="1"/><circle cx="2" cy="22" r="1"/><circle cx="22" cy="22" r="1"/></g><path d="m12 12c-.084 0-.168-.014-.249-.042l-9.25-3.25c-.3-.106-.501-.39-.501-.708s.201-.602.501-.708l6-2.11c.393-.135.819.069.957.459.137.391-.068.819-.459.957l-3.987 1.402 6.988 2.455 6.988-2.455-3.987-1.402c-.391-.137-.596-.565-.458-.957.138-.39.565-.594.957-.458l6 2.11c.299.105.5.389.5.707s-.201.602-.501.708l-9.25 3.25c-.081.028-.165.042-.249.042z"/><path d="m21.25 17.4c-.414 0-.75-.336-.75-.75v-8.65c0-.414.336-.75.75-.75s.75.336.75.75v8.65c0 .414-.336.75-.75.75z"/><path d="m2.75 17.4c-.414 0-.75-.336-.75-.75v-8.65c0-.414.336-.75.75-.75s.75.336.75.75v8.65c0 .414-.336.75-.75.75z"/><path d="m12 24c-.084 0-.168-.014-.249-.042l-4.92-1.73c-.391-.137-.596-.565-.458-.957.138-.39.566-.594.957-.458l4.67 1.642 4.671-1.643c.392-.136.819.068.957.458.137.391-.068.819-.458.957l-4.92 1.73c-.082.029-.166.043-.25.043z"/><path d="m12 8c-.414 0-.75-.336-.75-.75v-3.75c0-.414.336-.75.75-.75s.75.336.75.75v3.75c0 .414-.336.75-.75.75z"/><path d="m20.94 21.69c-.192 0-.384-.073-.53-.22l-2.19-2.19c-.293-.293-.293-.768 0-1.061s.768-.293 1.061 0l2.19 2.19c.293.293.293.768 0 1.061-.147.147-.339.22-.531.22z"/><path d="m3.06 21.69c-.192 0-.384-.073-.53-.22-.293-.293-.293-.768 0-1.061l2.19-2.19c.293-.293.768-.293 1.061 0s.293.768 0 1.061l-2.19 2.19c-.147.147-.339.22-.531.22z"/><path d="m12 23.75c-.414 0-.75-.336-.75-.75v-11.5c0-.414.336-.75.75-.75s.75.336.75.75v11.5c0 .414-.336.75-.75.75z"/><path d="m12 4c-1.103 0-2-.897-2-2s.897-2 2-2 2 .897 2 2-.897 2-2 2zm0-2.5c-.276 0-.5.224-.5.5s.224.5.5.5.5-.224.5-.5-.224-.5-.5-.5z"/><path d="m22 24c-1.103 0-2-.897-2-2s.897-2 2-2 2 .897 2 2-.897 2-2 2zm0-2.5c-.276 0-.5.224-.5.5s.224.5.5.5.5-.224.5-.5-.224-.5-.5-.5z"/><path d="m2 24c-1.103 0-2-.897-2-2s.897-2 2-2 2 .897 2 2-.897 2-2 2zm0-2.5c-.276 0-.5.224-.5.5s.224.5.5.5.5-.224.5-.5-.224-.5-.5-.5z"/></svg>